<svg xmlns="http://www.w3.org/2000/svg" viewBox="0 0 300 300">
  <!-- Banana: single continuous outline path, crescent shape with stem -->
  <!-- Recognizable from outline alone: curved crescent body + small stem nub -->
  <path d="
    M 155,55
    C 152,48 156,40 162,42
    C 168,44 166,52 164,58
    L 162,65
    C 175,62 188,68 198,82
    C 215,108 225,148 222,192
    C 220,228 206,258 178,274
    C 166,281 152,284 142,278
    C 134,273 136,264 144,260
    C 160,250 174,234 182,212
    C 192,184 196,152 190,122
    C 185,96 174,78 158,68
    L 155,55
    Z
  " fill="none" stroke="#B89628" stroke-width="4" stroke-linecap="round" stroke-linejoin="round"/>
</svg>
