<svg xmlns="http://www.w3.org/2000/svg" viewBox="0 0 300 300">
  <!-- Dog: side-profile outline, single continuous path -->
  <!-- Recognizable features: pointed snout, floppy ear, 4 legs, raised tail -->
  <path d="
    M 55,165
    L 40,152
    C 35,148 35,142 42,140
    L 65,135
    C 70,128 78,118 88,112
    C 95,107 105,104 112,102
    L 108,78
    C 106,65 110,55 118,52
    C 126,49 132,56 130,68
    L 128,88
    C 128,88 132,100 138,98
    C 148,95 160,94 172,96
    C 190,100 205,110 215,125
    C 225,140 230,160 232,178
    L 240,175
    C 248,172 254,176 252,184
    C 250,192 244,195 238,192
    L 232,190
    C 232,200 230,210 226,218
    L 230,248
    C 231,258 228,266 222,266
    C 216,266 215,258 216,248
    L 218,225
    C 212,232 204,236 196,238
    L 198,258
    C 199,268 196,276 190,276
    C 184,276 183,268 184,258
    L 186,240
    C 174,242 162,242 150,240
    C 138,238 128,234 120,228
    L 118,258
    C 117,268 114,276 108,276
    C 102,276 101,268 102,258
    L 106,232
    C 100,226 96,220 92,214
    L 88,248
    C 87,258 84,266 78,266
    C 72,266 71,258 72,248
    L 78,218
    C 70,205 64,190 60,175
    C 58,170 56,168 55,165
    Z
  " fill="none" stroke="#B89628" stroke-width="4" stroke-linecap="round" stroke-linejoin="round"/>
</svg>
